<?xml version="1.0"?>
<svg xmlns="http://www.w3.org/2000/svg" id="Layer_1" enable-background="new 0 0 508.495 508.495" height="512" viewBox="0 0 508.495 508.495" width="512" class=""><g><path d="m151.938 102.708h-135.938c-8.836 0-16 7.163-16 16v81.104c0 8.837 7.164 16 16 16 21.193 0 38.435 17.242 38.435 38.436s-17.242 38.434-38.435 38.434c-8.836 0-16 7.163-16 16v81.105c0 8.837 7.164 16 16 16h135.938z" data-original="#000000" class="active-path" style="fill:#C81E21" data-old_color="#000000"/><path d="m492.495 215.812c8.836 0 16-7.163 16-16v-81.104c0-8.837-7.164-16-16-16h-308.557v303.08h308.557c8.836 0 16-7.163 16-16v-81.105c0-8.837-7.164-16-16-16-21.193 0-38.435-17.241-38.435-38.435s17.242-38.436 38.435-38.436z" data-original="#000000" class="active-path" style="fill:#C81E21" data-old_color="#000000"/></g> </svg>
