<?xml version="1.0"?>
<svg xmlns="http://www.w3.org/2000/svg" xmlns:xlink="http://www.w3.org/1999/xlink" version="1.1" id="Layer_1" x="0px" y="0px" viewBox="0 0 512 512" style="enable-background:new 0 0 512 512;" xml:space="preserve" width="512" height="512" class=""><g><g transform="translate(1 1)">
	<g>
		<path d="M479.685,60.644c-4.1-1.269-8.451-1.911-13.058-1.911H43.373c-4.608,0-8.959,0.642-13.059,1.911    C12.065,66.141-1,82.917-1,103.107v303.787c0,12.278,4.835,23.291,12.725,31.276c0.277,0.412,0.58,0.802,0.928,1.15    c2.215,1.993,4.605,3.751,7.12,5.27c6.256,3.889,13.578,6.264,21.484,6.624c0.705,0.034,1.41,0.052,2.115,0.052h423.253    c0.705,0,1.411-0.018,2.115-0.052C492.482,450.133,511,430.93,511,406.893V103.107C511,82.917,497.934,66.141,479.685,60.644z     M305.461,262.573L490.591,89.785c2.135,3.915,3.343,8.445,3.343,13.321v303.787c0,5.426-1.496,10.422-4.102,14.62    L305.461,262.573z M466.627,75.8c0.502,0,0.99,0.014,1.469,0.038c0.239,0.012,0.474,0.034,0.711,0.052    c0.257,0.019,0.517,0.035,0.769,0.062c0.123,0.013,0.243,0.031,0.365,0.045c2.81,0.339,5.297,1.122,7.779,2.364L289.769,254.107    c-1.11,0.393-2.19,0.993-3.195,1.747l-6.827,5.973c-14.507,13.653-36.693,13.653-51.2,0l-0.923-0.807L32.28,78.36    c2.482-1.241,4.969-2.025,7.779-2.364c0.122-0.014,0.242-0.032,0.365-0.045c0.252-0.027,0.512-0.042,0.77-0.062    c0.237-0.018,0.472-0.04,0.711-0.052c0.479-0.024,0.967-0.038,1.469-0.038H466.627z M19.593,420.538    c-2.247-3.989-3.526-8.633-3.526-13.645V103.107c0-4.876,1.208-9.406,3.343-13.321l184.31,172.023L19.593,420.538z M43.373,434.2    c-2.768,0-5.536-0.563-8.305-1.23c-0.601-0.184-1.19-0.394-1.771-0.617l183.681-158.169l0.476,0.444    c3.516,2.975,7.204,5.518,11.036,7.608c20.16,11.555,46.703,9.023,64.058-7.608l0.885-0.826l183.272,158.551    c-0.582,0.223-1.17,0.433-1.772,0.618c-2.768,0.667-5.536,1.23-8.305,1.23H43.373z" data-original="#000000" class="active-path" style="fill:#FFFFFF" data-old_color="#000000"/>
	</g>
</g></g> </svg>
