<?xml version="1.0"?>
<svg xmlns="http://www.w3.org/2000/svg" xmlns:xlink="http://www.w3.org/1999/xlink" version="1.1" id="Layer_1" x="0px" y="0px" viewBox="0 0 512 512" style="enable-background:new 0 0 512 512;" xml:space="preserve" width="512" height="512"><g><g transform="translate(1 1)">
	<g>
		<path d="M511,338.627c0-15.076-6.609-28.68-17.067-38.071v-62.622C493.933,106.52,386.413-1,255-1S16.067,106.52,16.067,237.933    v62.622C5.609,309.946-1,323.55-1,338.627c0,28.16,23.04,51.2,51.2,51.2h0.344c1.494,9.358,7.814,17.4,16.723,19.627l17.067,5.973    c3.413,0.853,5.973,1.707,8.533,1.707c5.12,0,10.24-1.707,15.36-5.12c5.973-4.267,10.24-11.947,10.24-20.48V284.867    c0-7.68-3.413-15.36-10.24-20.48c-6.827-5.12-15.36-5.973-23.04-3.413l-17.067,5.973c-9.933,3.056-16.429,10.908-17.682,20.48    H50.2c-5.978,0-11.721,1.048-17.067,2.953v-52.446c0-122.027,99.84-221.867,221.867-221.867s221.867,99.84,221.867,221.867v52.446    c-5.345-1.905-11.088-2.953-17.067-2.953h-0.293c-1.465-9.023-8.528-17.447-17.627-20.48l-17.067-5.973    c-7.68-2.56-16.213-1.707-23.04,3.413c-5.973,4.267-10.24,11.947-10.24,20.48v106.667c0,8.533,4.267,16.213,11.093,20.48    c4.267,3.413,9.387,5.12,14.507,5.12c2.56,0,5.12-0.853,7.68-1.707l17.067-5.973c9.638-2.965,16.048-10.442,17.566-19.627h0.354    c5.495,0,10.79-0.888,15.762-2.509c-8.096,44.672-53.094,78.188-110.767,80.84c-3.876-14.59-17.23-25.424-32.995-25.424    c-18.773,0-34.133,15.36-34.133,34.133c0,18.773,15.36,34.133,34.133,34.133c15.887,0,29.327-11.001,33.085-25.761    c71.549-3.029,126.567-49.295,128.958-108.462C504.352,367.383,511,353.746,511,338.627z M67.267,290.84    c0-3.413,2.56-6.827,5.973-7.68l17.067-5.973c0.853-0.853,1.707-0.853,2.56-0.853c1.707,0,3.413,0.853,5.12,1.707    c1.707,1.707,3.413,4.267,3.413,6.827v106.667c0,2.56-0.853,5.12-3.413,6.827c-2.56,1.707-5.12,1.707-7.68,0.853L73.24,393.24    c-3.413-0.853-5.973-4.267-5.973-7.68v-4.267V295.96V290.84z M50.2,372.76c-18.773,0-34.133-15.36-34.133-34.133    c0-10.678,4.973-20.246,12.713-26.518c0.845-0.418,1.582-0.975,2.201-1.645c5.484-3.761,12.105-5.971,19.219-5.971V372.76z     M331.8,493.933c-9.387,0-17.067-7.68-17.067-17.067s7.68-17.067,17.067-17.067c9.387,0,17.067,7.68,17.067,17.067    S341.187,493.933,331.8,493.933z M436.76,393.24l-17.067,5.973c-2.56,0.853-5.12,0.853-7.68-0.853    c-1.707-1.707-3.413-4.267-3.413-6.827V284.867c0-2.56,0.853-5.12,3.413-6.827c1.707-0.853,3.413-1.707,5.12-1.707    c0.853,0,1.707,0.853,2.56,0.853l17.067,5.973c3.413,0.853,5.973,4.267,5.973,7.68v5.119c0,0,0,0.001,0,0.001v85.333    c0,0,0,0.001,0,0.001v4.265C442.733,388.973,440.173,392.387,436.76,393.24z M481.221,365.144    c-0.845,0.418-1.582,0.975-2.201,1.645c-5.484,3.761-12.105,5.971-19.219,5.971v-68.267c7.114,0,13.735,2.209,19.219,5.971    c0.62,0.671,1.356,1.227,2.201,1.645c7.74,6.271,12.713,15.84,12.713,26.518S488.96,358.873,481.221,365.144z" data-original="#000000" class="active-path" style="fill:#FFFEFE" data-old_color="#000000"/>
	</g>
</g></g> </svg>
